<svg xmlns="http://www.w3.org/2000/svg" width="137" height="21" fill="none" xmlns:v="https://vecta.io/nano"><path d="M.547 16v-1.71l1.514-.293V3.793L.547 3.5V1.78H4.95l6.19 9.863.06-.01V3.793L9.385 3.5V1.78h5.89V3.5l-1.523.293V16h-2.754L4.668 6.234l-.06.01v7.754l1.826.293V16H.547zm20.79.205c-1.016 0-1.9-.22-2.656-.664-.75-.45-1.33-1.064-1.748-1.846-.4-.78-.615-1.673-.615-2.676v-.39c0-1.048.195-1.976.586-2.783.39-.814.94-1.452 1.65-1.914.716-.47 1.56-.7 2.53-.693 1.426 0 2.516.42 3.27 1.26.755.833 1.133 2.005 1.133 3.516v1.553h-6.21l-.02.06c.052.697.283 1.27.693 1.72s.993.674 1.748.674c.52 0 1.006-.065 1.455-.195.456-.137.898-.335 1.328-.596l.772 1.758c-.436.35-.986.644-1.65.88-.657.228-1.413.342-2.266.342zm-2.04-6.523h3.525v-.254c0-.638-.133-1.143-.4-1.514-.26-.378-.7-.566-1.29-.566-.573 0-1.01.218-1.31.654-.3.43-.485.973-.557 1.63l.03.05zM30.264 16l-2.46-8.613-1.29-.234v-1.72h5.107v1.71l-1.113.215.977 4.11.195.8h.06l.264-.8 2.168-6.035h1.914l2.1 6.113.273.86h.06l.254-.86 1.152-4.18-1.23-.225v-1.71h5v1.72l-1.23.234L39.775 16h-2.402l-1.933-5.234-.342-1.162h-.06l-.342 1.172L32.793 16h-2.53zm18.867.205c-.788 0-1.523-.075-2.207-.225a10.1 10.1 0 0 1-1.953-.645l-.03-2.988h1.982l.38 1.523c.22.11.462.2.723.264.267.065.57.098.908.098.638 0 1.087-.104 1.348-.312a.96.96 0 0 0 .391-.781c0-.293-.14-.55-.42-.77-.28-.228-.83-.426-1.65-.596-1.256-.26-2.18-.664-2.773-1.21-.586-.547-.88-1.247-.88-2.1 0-.58.147-1.113.44-1.602.3-.488.752-.876 1.357-1.162.612-.293 1.393-.44 2.344-.44.794 0 1.52.078 2.178.234.664.15 1.22.348 1.67.596l.03 2.89h-1.973l-.303-1.387c-.378-.26-.853-.39-1.426-.39-.495 0-.88.104-1.152.313-.267.202-.4.46-.4.77 0 .273.117.52.352.742.24.215.765.413 1.572.596 1.31.3 2.262.7 2.86 1.2.6.495.898 1.19.898 2.1 0 .983-.358 1.777-1.074 2.383-.7.605-1.774.908-3.193.908zM54.63 16v-1.71l1.514-.293V3.793L54.63 3.5V1.78h11.035V5.62h-2.188l-.127-1.64h-4.355v3.574h4.814V9.75h-4.814v4.063h4.6l.127-1.7h2.168V16H54.63zm12.52 0v-1.71l1.358-.176 3.027-3.408-2.86-3.39-1.28-.166v-1.72h5.234v1.64l-.82.127 1.533 2.012L74.873 7.2l-.908-.127v-1.64h5.05v1.72l-1.182.166-2.705 3.27 3.017 3.525 1.3.176V16h-5.42v-1.63l.918-.127-1.63-2.02-1.592 2.03.898.117V16h-5.47zm13.145 4.063v-1.72l1.377-.293V7.445l-1.523-.293v-1.72h4.14l.137 1.23c.313-.456.7-.807 1.133-1.055s.97-.37 1.582-.37c.853 0 1.582.234 2.188.703.605.462 1.068 1.1 1.387 1.943.325.833.488 1.807.488 2.92V11c0 1.042-.163 1.953-.488 2.734-.326.775-.794 1.38-1.406 1.816-.605.43-1.335.645-2.187.645-1.113 0-1.982-.404-2.607-1.21v3.057l1.377.293v1.72h-5.596zm5.976-6.045c.73 0 1.257-.27 1.582-.81.332-.54.498-1.273.498-2.197v-.205c0-.996-.17-1.803-.508-2.422s-.87-.928-1.592-.928c-.794 0-1.374.34-1.738 1.016v4.63c.358.612.944.918 1.758.918zM92.12 16v-1.71l1.377-.293V2.777l-1.523-.293V.766h4.375v13.232l1.377.293V16H92.12zm11.387.205c-1.048 0-1.947-.228-2.695-.684a4.5 4.5 0 0 1-1.709-1.894c-.397-.814-.596-1.748-.596-2.803v-.205c0-1.048.2-1.976.596-2.783.397-.814.966-1.45 1.71-1.904.748-.462 1.64-.693 2.675-.693 1.042 0 1.934.228 2.676.684a4.47 4.47 0 0 1 1.719 1.904c.397.807.596 1.738.596 2.793v.205c0 1.055-.2 1.99-.596 2.803-.397.807-.967 1.44-1.71 1.894s-1.63.684-2.666.684zm0-2.188c.736 0 1.273-.293 1.61-.88.345-.586.518-1.357.518-2.315v-.205c0-.937-.173-1.702-.518-2.295s-.888-.89-1.63-.89-1.282.296-1.62.89-.508 1.357-.508 2.295v.205c0 .964.17 1.738.508 2.324.34.58.886.87 1.64.87zM109.97 16v-1.71l1.367-.293V7.445l-1.514-.293v-1.72h4.17l.108 1.31.02.234c.52-1.16 1.302-1.738 2.344-1.738.17 0 .35.013.547.04.202.026.384.065.547.117l-.303 2.627-1.416-.078c-.404-.02-.733.05-.986.205s-.47.38-.665.674v5.176l1.368.293V16h-5.586zm13.3.205c-1.015 0-1.9-.22-2.656-.664-.748-.45-1.33-1.064-1.748-1.846-.4-.78-.615-1.673-.615-2.676v-.39c0-1.048.195-1.976.586-2.783.39-.814.94-1.452 1.65-1.914.716-.47 1.56-.7 2.53-.693 1.425 0 2.516.42 3.27 1.26.755.833 1.133 2.005 1.133 3.516v1.553h-6.21l-.02.06c.052.697.284 1.27.694 1.72s.993.674 1.748.674c.52 0 1.006-.065 1.455-.195.456-.137.898-.335 1.328-.596l.772 1.758c-.437.35-.987.644-1.65.88-.657.228-1.413.342-2.266.342zm-2.04-6.523h3.526v-.254c0-.638-.134-1.143-.4-1.514-.26-.378-.7-.566-1.29-.566-.573 0-1.01.218-1.308.654-.3.43-.485.973-.557 1.63l.03.05zM128.955 16v-1.71l1.367-.293V7.445l-1.513-.293v-1.72h4.17l.126 1.543c.52-1.16 1.303-1.738 2.344-1.738.17 0 .352.013.547.04.202.026.384.065.547.117l-.303 2.627-1.416-.078c-.403-.02-.732.05-.986.205-.248.156-.47.38-.664.674v5.176l1.367.293V16h-5.586z" fill="#fff"/></svg>