<svg xmlns="http://www.w3.org/2000/svg" width="22" height="21" fill="none" xmlns:v="https://vecta.io/nano"><path fill-rule="evenodd" d="M11 .895A10.11 10.11 0 0 0 .895 11c0 4.466 2.897 8.25 6.91 9.6.502.093.69-.217.69-.5l-.012-1.718C5.67 19 5.076 17.03 5.076 17.03c-.46-1.166-1.123-1.476-1.123-1.476-.918-.627.068-.614.068-.614 1.01.075 1.55 1.042 1.55 1.042.9 1.545 2.363 1.098 2.94.837.093-.65.354-1.098.64-1.352-2.246-.254-4.603-1.123-4.603-4.994 0-1.104.39-2.004 1.042-2.71-.105-.254-.453-1.284.1-2.674 0 0 .85-.273 2.78 1.036.806-.223 1.67-.335 2.53-.34.856.006 1.724.118 2.53.34 1.93-1.31 2.78-1.036 2.78-1.036.552 1.4.205 2.42.1 2.674.645.707 1.036 1.607 1.036 2.71 0 3.883-2.363 4.733-4.615 4.988.36.3.69.93.69 1.873l-.012 2.773c0 .273.18.583.695.484 4.014-1.34 6.904-5.124 6.904-9.584A10.11 10.11 0 0 0 11 .895z" fill="#191717"/></svg>